<svg version="1.2" xmlns="http://www.w3.org/2000/svg" viewBox="0 0 400 400" width="400" height="400">
	<title>solide-light</title>
	<style>
		.s0 { fill: #231f20 } 
	</style>
	<path id="Layer" fill-rule="evenodd" class="s0" d="m372.6 99.9v200.3l-172.4 99.8-172.2-99.7v-200.6l172.2-99.7zm-313.9 88.4l119.9 68.9v28.9l-119.7-68.6v19.1l121.1 69.6-0.2 28.9-120.9-69.3c-0.3 3.6-0.6 6-0.5 8.5 0 2.9 0.2 5.7 0.4 8.5l141.6 81.9 19.3-11.9v-143.9l25.4-14.1v141c0 0.4 0.4 0.8 0.7 1.1q0.8 0.4 1.6 0.7l13.5-8.5v-144.3l25.5-14.5v144.6l16.8-10v-144.9l25.6-14.7v144.8l13.1-7.7v-164.7l-14.8-8.6-121.8 70.7-25-14.9 121.7-70.5-15.2-8.7-121.8 70.6-25.1-14.6 121.8-70.9-16.8-9.4c-41.6 23.3-81.4 48.4-122.4 70.6l-24.5-14.7 121.7-70.6-19.4-11.3-141.5 82v22.6l119.3 68.7v28.9l-119.4-68.4z"/>
</svg>